STARTFONT 2.1
FONT -FontStruct-Grand9K Pixel-Medium-R-Normal--9-90-75-75-P-54-MacRoman-1
SIZE 9 75 75
FONTBOUNDINGBOX 8 12 0 -2
COMMENT Grand9K Pixel (c) Jayvee Enaguas - CC BY-SA 3.0; rasterized to a 9px Mac Roman strike as a free Geneva-9 substitute
STARTPROPERTIES 4
PIXEL_SIZE 9
FONT_ASCENT 10
FONT_DESCENT 2
DEFAULT_CHAR 32
ENDPROPERTIES
CHARS 190
STARTCHAR char32
ENCODING 32
SWIDTH 222 0
DWIDTH 2 0
BBX 0 0 0 0
BITMAP
ENDCHAR
STARTCHAR char33
ENCODING 33
SWIDTH 222 0
DWIDTH 2 0
BBX 1 7 0 0
BITMAP
80
80
80
80
80
00
80
ENDCHAR
STARTCHAR char34
ENCODING 34
SWIDTH 444 0
DWIDTH 4 0
BBX 3 2 0 5
BITMAP
A0
A0
ENDCHAR
STARTCHAR char35
ENCODING 35
SWIDTH 777 0
DWIDTH 7 0
BBX 6 7 0 0
BITMAP
48
FC
48
48
48
FC
48
ENDCHAR
STARTCHAR char36
ENCODING 36
SWIDTH 666 0
DWIDTH 6 0
BBX 5 7 0 0
BITMAP
20
78
A0
70
28
F0
20
ENDCHAR
STARTCHAR char37
ENCODING 37
SWIDTH 888 0
DWIDTH 8 0
BBX 7 7 0 0
BITMAP
42
A4
A8
54
2A
4A
84
ENDCHAR
STARTCHAR char38
ENCODING 38
SWIDTH 666 0
DWIDTH 6 0
BBX 5 7 0 0
BITMAP
70
80
88
78
88
88
70
ENDCHAR
STARTCHAR char39
ENCODING 39
SWIDTH 222 0
DWIDTH 2 0
BBX 1 2 0 5
BITMAP
80
80
ENDCHAR
STARTCHAR char40
ENCODING 40
SWIDTH 444 0
DWIDTH 4 0
BBX 3 7 0 0
BITMAP
60
80
80
80
80
80
60
ENDCHAR
STARTCHAR char41
ENCODING 41
SWIDTH 444 0
DWIDTH 4 0
BBX 3 7 0 0
BITMAP
C0
20
20
20
20
20
C0
ENDCHAR
STARTCHAR char42
ENCODING 42
SWIDTH 666 0
DWIDTH 6 0
BBX 5 5 0 2
BITMAP
20
A8
70
A8
20
ENDCHAR
STARTCHAR char43
ENCODING 43
SWIDTH 666 0
DWIDTH 6 0
BBX 5 5 0 1
BITMAP
20
20
F8
20
20
ENDCHAR
STARTCHAR char44
ENCODING 44
SWIDTH 222 0
DWIDTH 2 0
BBX 1 2 0 -1
BITMAP
80
80
ENDCHAR
STARTCHAR char45
ENCODING 45
SWIDTH 555 0
DWIDTH 5 0
BBX 4 1 0 3
BITMAP
F0
ENDCHAR
STARTCHAR char46
ENCODING 46
SWIDTH 222 0
DWIDTH 2 0
BBX 1 1 0 0
BITMAP
80
ENDCHAR
STARTCHAR char47
ENCODING 47
SWIDTH 444 0
DWIDTH 4 0
BBX 3 7 0 0
BITMAP
20
20
40
40
40
80
80
ENDCHAR
STARTCHAR char48
ENCODING 48
SWIDTH 666 0
DWIDTH 6 0
BBX 5 7 0 0
BITMAP
70
88
98
A8
C8
88
70
ENDCHAR
STARTCHAR char49
ENCODING 49
SWIDTH 333 0
DWIDTH 3 0
BBX 2 7 0 0
BITMAP
C0
40
40
40
40
40
40
ENDCHAR
STARTCHAR char50
ENCODING 50
SWIDTH 666 0
DWIDTH 6 0
BBX 5 7 0 0
BITMAP
F0
08
08
70
80
80
F8
ENDCHAR
STARTCHAR char51
ENCODING 51
SWIDTH 555 0
DWIDTH 5 0
BBX 4 7 0 0
BITMAP
E0
10
10
E0
10
10
E0
ENDCHAR
STARTCHAR char52
ENCODING 52
SWIDTH 666 0
DWIDTH 6 0
BBX 5 7 0 0
BITMAP
18
28
48
88
F8
08
08
ENDCHAR
STARTCHAR char53
ENCODING 53
SWIDTH 666 0
DWIDTH 6 0
BBX 5 7 0 0
BITMAP
F8
80
80
F0
08
08
F0
ENDCHAR
STARTCHAR char54
ENCODING 54
SWIDTH 666 0
DWIDTH 6 0
BBX 5 7 0 0
BITMAP
70
80
80
F0
88
88
70
ENDCHAR
STARTCHAR char55
ENCODING 55
SWIDTH 666 0
DWIDTH 6 0
BBX 5 7 0 0
BITMAP
F8
08
10
10
20
20
20
ENDCHAR
STARTCHAR char56
ENCODING 56
SWIDTH 666 0
DWIDTH 6 0
BBX 5 7 0 0
BITMAP
70
88
88
70
88
88
70
ENDCHAR
STARTCHAR char57
ENCODING 57
SWIDTH 666 0
DWIDTH 6 0
BBX 5 7 0 0
BITMAP
70
88
88
78
08
08
70
ENDCHAR
STARTCHAR char58
ENCODING 58
SWIDTH 222 0
DWIDTH 2 0
BBX 1 5 0 0
BITMAP
80
00
00
00
80
ENDCHAR
STARTCHAR char59
ENCODING 59
SWIDTH 222 0
DWIDTH 2 0
BBX 1 6 0 -1
BITMAP
80
00
00
00
80
80
ENDCHAR
STARTCHAR char60
ENCODING 60
SWIDTH 555 0
DWIDTH 5 0
BBX 4 7 0 0
BITMAP
10
20
40
80
40
20
10
ENDCHAR
STARTCHAR char61
ENCODING 61
SWIDTH 555 0
DWIDTH 5 0
BBX 4 3 0 2
BITMAP
F0
00
F0
ENDCHAR
STARTCHAR char62
ENCODING 62
SWIDTH 555 0
DWIDTH 5 0
BBX 4 7 0 0
BITMAP
80
40
20
10
20
40
80
ENDCHAR
STARTCHAR char63
ENCODING 63
SWIDTH 555 0
DWIDTH 5 0
BBX 4 7 0 0
BITMAP
E0
10
10
20
40
00
40
ENDCHAR
STARTCHAR char64
ENCODING 64
SWIDTH 888 0
DWIDTH 8 0
BBX 7 8 0 -1
BITMAP
7C
82
9A
AA
AA
9C
80
7C
ENDCHAR
STARTCHAR char65
ENCODING 65
SWIDTH 666 0
DWIDTH 6 0
BBX 5 7 0 0
BITMAP
70
88
88
88
F8
88
88
ENDCHAR
STARTCHAR char66
ENCODING 66
SWIDTH 666 0
DWIDTH 6 0
BBX 5 7 0 0
BITMAP
F0
88
88
F0
88
88
F0
ENDCHAR
STARTCHAR char67
ENCODING 67
SWIDTH 555 0
DWIDTH 5 0
BBX 4 7 0 0
BITMAP
70
80
80
80
80
80
70
ENDCHAR
STARTCHAR char68
ENCODING 68
SWIDTH 666 0
DWIDTH 6 0
BBX 5 7 0 0
BITMAP
F0
88
88
88
88
88
F0
ENDCHAR
STARTCHAR char69
ENCODING 69
SWIDTH 555 0
DWIDTH 5 0
BBX 4 7 0 0
BITMAP
F0
80
80
F0
80
80
F0
ENDCHAR
STARTCHAR char70
ENCODING 70
SWIDTH 555 0
DWIDTH 5 0
BBX 4 7 0 0
BITMAP
F0
80
80
F0
80
80
80
ENDCHAR
STARTCHAR char71
ENCODING 71
SWIDTH 666 0
DWIDTH 6 0
BBX 5 7 0 0
BITMAP
78
80
80
98
88
88
78
ENDCHAR
STARTCHAR char72
ENCODING 72
SWIDTH 666 0
DWIDTH 6 0
BBX 5 7 0 0
BITMAP
88
88
88
F8
88
88
88
ENDCHAR
STARTCHAR char73
ENCODING 73
SWIDTH 222 0
DWIDTH 2 0
BBX 1 7 0 0
BITMAP
80
80
80
80
80
80
80
ENDCHAR
STARTCHAR char74
ENCODING 74
SWIDTH 666 0
DWIDTH 6 0
BBX 5 7 0 0
BITMAP
08
08
08
08
08
08
F0
ENDCHAR
STARTCHAR char75
ENCODING 75
SWIDTH 666 0
DWIDTH 6 0
BBX 5 7 0 0
BITMAP
88
90
A0
C0
A0
90
88
ENDCHAR
STARTCHAR char76
ENCODING 76
SWIDTH 666 0
DWIDTH 6 0
BBX 5 7 0 0
BITMAP
80
80
80
80
80
80
F8
ENDCHAR
STARTCHAR char77
ENCODING 77
SWIDTH 666 0
DWIDTH 6 0
BBX 5 7 0 0
BITMAP
88
D8
A8
88
88
88
88
ENDCHAR
STARTCHAR char78
ENCODING 78
SWIDTH 666 0
DWIDTH 6 0
BBX 5 7 0 0
BITMAP
88
C8
A8
98
88
88
88
ENDCHAR
STARTCHAR char79
ENCODING 79
SWIDTH 666 0
DWIDTH 6 0
BBX 5 7 0 0
BITMAP
70
88
88
88
88
88
70
ENDCHAR
STARTCHAR char80
ENCODING 80
SWIDTH 666 0
DWIDTH 6 0
BBX 5 7 0 0
BITMAP
F0
88
88
88
F0
80
80
ENDCHAR
STARTCHAR char81
ENCODING 81
SWIDTH 777 0
DWIDTH 7 0
BBX 6 8 0 -1
BITMAP
70
88
88
88
88
88
70
0C
ENDCHAR
STARTCHAR char82
ENCODING 82
SWIDTH 666 0
DWIDTH 6 0
BBX 5 7 0 0
BITMAP
F0
88
88
88
F0
88
88
ENDCHAR
STARTCHAR char83
ENCODING 83
SWIDTH 666 0
DWIDTH 6 0
BBX 5 7 0 0
BITMAP
78
80
80
70
08
08
F0
ENDCHAR
STARTCHAR char84
ENCODING 84
SWIDTH 666 0
DWIDTH 6 0
BBX 5 7 0 0
BITMAP
F8
20
20
20
20
20
20
ENDCHAR
STARTCHAR char85
ENCODING 85
SWIDTH 666 0
DWIDTH 6 0
BBX 5 7 0 0
BITMAP
88
88
88
88
88
88
70
ENDCHAR
STARTCHAR char86
ENCODING 86
SWIDTH 666 0
DWIDTH 6 0
BBX 5 7 0 0
BITMAP
88
88
88
88
88
50
20
ENDCHAR
STARTCHAR char87
ENCODING 87
SWIDTH 666 0
DWIDTH 6 0
BBX 5 7 0 0
BITMAP
88
88
88
88
A8
D8
88
ENDCHAR
STARTCHAR char88
ENCODING 88
SWIDTH 666 0
DWIDTH 6 0
BBX 5 7 0 0
BITMAP
88
88
50
20
50
88
88
ENDCHAR
STARTCHAR char89
ENCODING 89
SWIDTH 666 0
DWIDTH 6 0
BBX 5 7 0 0
BITMAP
88
88
88
70
20
20
20
ENDCHAR
STARTCHAR char90
ENCODING 90
SWIDTH 666 0
DWIDTH 6 0
BBX 5 7 0 0
BITMAP
F8
08
10
20
40
80
F8
ENDCHAR
STARTCHAR char91
ENCODING 91
SWIDTH 444 0
DWIDTH 4 0
BBX 3 7 0 0
BITMAP
E0
80
80
80
80
80
E0
ENDCHAR
STARTCHAR char92
ENCODING 92
SWIDTH 444 0
DWIDTH 4 0
BBX 3 7 0 0
BITMAP
80
80
40
40
40
20
20
ENDCHAR
STARTCHAR char93
ENCODING 93
SWIDTH 444 0
DWIDTH 4 0
BBX 3 7 0 0
BITMAP
E0
20
20
20
20
20
E0
ENDCHAR
STARTCHAR char94
ENCODING 94
SWIDTH 666 0
DWIDTH 6 0
BBX 5 3 0 4
BITMAP
20
50
88
ENDCHAR
STARTCHAR char95
ENCODING 95
SWIDTH 444 0
DWIDTH 4 0
BBX 4 1 0 -1
BITMAP
F0
ENDCHAR
STARTCHAR char96
ENCODING 96
SWIDTH 333 0
DWIDTH 3 0
BBX 2 2 0 5
BITMAP
80
40
ENDCHAR
STARTCHAR char97
ENCODING 97
SWIDTH 555 0
DWIDTH 5 0
BBX 4 5 0 0
BITMAP
60
10
70
90
70
ENDCHAR
STARTCHAR char98
ENCODING 98
SWIDTH 555 0
DWIDTH 5 0
BBX 4 7 0 0
BITMAP
80
80
E0
90
90
90
E0
ENDCHAR
STARTCHAR char99
ENCODING 99
SWIDTH 444 0
DWIDTH 4 0
BBX 3 5 0 0
BITMAP
60
80
80
80
60
ENDCHAR
STARTCHAR char100
ENCODING 100
SWIDTH 555 0
DWIDTH 5 0
BBX 4 7 0 0
BITMAP
10
10
70
90
90
90
70
ENDCHAR
STARTCHAR char101
ENCODING 101
SWIDTH 555 0
DWIDTH 5 0
BBX 4 5 0 0
BITMAP
60
90
F0
80
70
ENDCHAR
STARTCHAR char102
ENCODING 102
SWIDTH 555 0
DWIDTH 5 0
BBX 4 7 0 0
BITMAP
30
40
F0
40
40
40
40
ENDCHAR
STARTCHAR char103
ENCODING 103
SWIDTH 555 0
DWIDTH 5 0
BBX 4 6 0 -1
BITMAP
70
90
90
70
10
E0
ENDCHAR
STARTCHAR char104
ENCODING 104
SWIDTH 555 0
DWIDTH 5 0
BBX 4 7 0 0
BITMAP
80
80
E0
90
90
90
90
ENDCHAR
STARTCHAR char105
ENCODING 105
SWIDTH 222 0
DWIDTH 2 0
BBX 1 7 0 0
BITMAP
80
00
80
80
80
80
80
ENDCHAR
STARTCHAR char106
ENCODING 106
SWIDTH 444 0
DWIDTH 4 0
BBX 3 8 0 -1
BITMAP
20
00
20
20
20
20
20
C0
ENDCHAR
STARTCHAR char107
ENCODING 107
SWIDTH 555 0
DWIDTH 5 0
BBX 4 7 0 0
BITMAP
80
80
90
A0
C0
A0
90
ENDCHAR
STARTCHAR char108
ENCODING 108
SWIDTH 222 0
DWIDTH 2 0
BBX 1 7 0 0
BITMAP
80
80
80
80
80
80
80
ENDCHAR
STARTCHAR char109
ENCODING 109
SWIDTH 666 0
DWIDTH 6 0
BBX 5 5 0 0
BITMAP
D0
A8
A8
A8
88
ENDCHAR
STARTCHAR char110
ENCODING 110
SWIDTH 555 0
DWIDTH 5 0
BBX 4 5 0 0
BITMAP
E0
90
90
90
90
ENDCHAR
STARTCHAR char111
ENCODING 111
SWIDTH 555 0
DWIDTH 5 0
BBX 4 5 0 0
BITMAP
60
90
90
90
60
ENDCHAR
STARTCHAR char112
ENCODING 112
SWIDTH 555 0
DWIDTH 5 0
BBX 4 6 0 -1
BITMAP
E0
90
90
90
E0
80
ENDCHAR
STARTCHAR char113
ENCODING 113
SWIDTH 555 0
DWIDTH 5 0
BBX 4 6 0 -1
BITMAP
70
90
90
90
70
10
ENDCHAR
STARTCHAR char114
ENCODING 114
SWIDTH 555 0
DWIDTH 5 0
BBX 4 5 0 0
BITMAP
B0
C0
80
80
80
ENDCHAR
STARTCHAR char115
ENCODING 115
SWIDTH 555 0
DWIDTH 5 0
BBX 4 5 0 0
BITMAP
70
80
60
10
E0
ENDCHAR
STARTCHAR char116
ENCODING 116
SWIDTH 555 0
DWIDTH 5 0
BBX 4 7 0 0
BITMAP
40
40
F0
40
40
40
30
ENDCHAR
STARTCHAR char117
ENCODING 117
SWIDTH 555 0
DWIDTH 5 0
BBX 4 5 0 0
BITMAP
90
90
90
90
70
ENDCHAR
STARTCHAR char118
ENCODING 118
SWIDTH 666 0
DWIDTH 6 0
BBX 5 5 0 0
BITMAP
88
88
88
50
20
ENDCHAR
STARTCHAR char119
ENCODING 119
SWIDTH 666 0
DWIDTH 6 0
BBX 5 5 0 0
BITMAP
88
A8
A8
A8
50
ENDCHAR
STARTCHAR char120
ENCODING 120
SWIDTH 666 0
DWIDTH 6 0
BBX 5 5 0 0
BITMAP
88
50
20
50
88
ENDCHAR
STARTCHAR char121
ENCODING 121
SWIDTH 555 0
DWIDTH 5 0
BBX 4 6 0 -1
BITMAP
90
90
90
70
10
E0
ENDCHAR
STARTCHAR char122
ENCODING 122
SWIDTH 666 0
DWIDTH 6 0
BBX 5 5 0 0
BITMAP
F8
10
20
40
F8
ENDCHAR
STARTCHAR char123
ENCODING 123
SWIDTH 555 0
DWIDTH 5 0
BBX 4 7 0 0
BITMAP
30
40
40
80
40
40
30
ENDCHAR
STARTCHAR char124
ENCODING 124
SWIDTH 222 0
DWIDTH 2 0
BBX 1 7 0 0
BITMAP
80
80
80
80
80
80
80
ENDCHAR
STARTCHAR char125
ENCODING 125
SWIDTH 555 0
DWIDTH 5 0
BBX 4 7 0 0
BITMAP
C0
20
20
10
20
20
C0
ENDCHAR
STARTCHAR char126
ENCODING 126
SWIDTH 777 0
DWIDTH 7 0
BBX 6 2 0 5
BITMAP
64
98
ENDCHAR
STARTCHAR char128
ENCODING 128
SWIDTH 666 0
DWIDTH 6 0
BBX 5 9 0 0
BITMAP
88
00
70
88
88
88
F8
88
88
ENDCHAR
STARTCHAR char129
ENCODING 129
SWIDTH 666 0
DWIDTH 6 0
BBX 5 10 0 0
BITMAP
20
50
20
70
88
88
88
F8
88
88
ENDCHAR
STARTCHAR char130
ENCODING 130
SWIDTH 555 0
DWIDTH 5 0
BBX 4 9 0 -2
BITMAP
70
80
80
80
80
80
70
20
40
ENDCHAR
STARTCHAR char131
ENCODING 131
SWIDTH 555 0
DWIDTH 5 0
BBX 4 10 0 0
BITMAP
20
40
00
F0
80
80
F0
80
80
F0
ENDCHAR
STARTCHAR char132
ENCODING 132
SWIDTH 666 0
DWIDTH 6 0
BBX 6 10 0 0
BITMAP
64
98
00
88
C8
A8
98
88
88
88
ENDCHAR
STARTCHAR char133
ENCODING 133
SWIDTH 666 0
DWIDTH 6 0
BBX 5 9 0 0
BITMAP
88
00
70
88
88
88
88
88
70
ENDCHAR
STARTCHAR char134
ENCODING 134
SWIDTH 666 0
DWIDTH 6 0
BBX 5 9 0 0
BITMAP
88
00
88
88
88
88
88
88
70
ENDCHAR
STARTCHAR char135
ENCODING 135
SWIDTH 555 0
DWIDTH 5 0
BBX 4 8 0 0
BITMAP
20
40
00
60
10
70
90
70
ENDCHAR
STARTCHAR char136
ENCODING 136
SWIDTH 555 0
DWIDTH 5 0
BBX 4 8 0 0
BITMAP
40
20
00
60
10
70
90
70
ENDCHAR
STARTCHAR char137
ENCODING 137
SWIDTH 555 0
DWIDTH 5 0
BBX 4 8 0 0
BITMAP
20
50
00
60
10
70
90
70
ENDCHAR
STARTCHAR char138
ENCODING 138
SWIDTH 555 0
DWIDTH 5 0
BBX 4 7 0 0
BITMAP
90
00
60
10
70
90
70
ENDCHAR
STARTCHAR char139
ENCODING 139
SWIDTH 555 0
DWIDTH 5 0
BBX 4 8 0 0
BITMAP
50
A0
00
60
10
70
90
70
ENDCHAR
STARTCHAR char140
ENCODING 140
SWIDTH 555 0
DWIDTH 5 0
BBX 4 9 0 0
BITMAP
20
50
20
00
60
10
70
90
70
ENDCHAR
STARTCHAR char141
ENCODING 141
SWIDTH 444 0
DWIDTH 4 0
BBX 3 7 0 -2
BITMAP
60
80
80
80
60
40
80
ENDCHAR
STARTCHAR char142
ENCODING 142
SWIDTH 555 0
DWIDTH 5 0
BBX 4 8 0 0
BITMAP
20
40
00
60
90
F0
80
70
ENDCHAR
STARTCHAR char143
ENCODING 143
SWIDTH 555 0
DWIDTH 5 0
BBX 4 8 0 0
BITMAP
40
20
00
60
90
F0
80
70
ENDCHAR
STARTCHAR char144
ENCODING 144
SWIDTH 555 0
DWIDTH 5 0
BBX 4 8 0 0
BITMAP
20
50
00
60
90
F0
80
70
ENDCHAR
STARTCHAR char145
ENCODING 145
SWIDTH 555 0
DWIDTH 5 0
BBX 4 7 0 0
BITMAP
90
00
60
90
F0
80
70
ENDCHAR
STARTCHAR char146
ENCODING 146
SWIDTH 333 0
DWIDTH 3 0
BBX 2 8 1 0
BITMAP
40
80
00
80
80
80
80
80
ENDCHAR
STARTCHAR char147
ENCODING 147
SWIDTH 333 0
DWIDTH 3 0
BBX 2 8 0 0
BITMAP
80
40
00
40
40
40
40
40
ENDCHAR
STARTCHAR char148
ENCODING 148
SWIDTH 333 0
DWIDTH 3 0
BBX 3 8 0 0
BITMAP
40
A0
00
40
40
40
40
40
ENDCHAR
STARTCHAR char149
ENCODING 149
SWIDTH 333 0
DWIDTH 3 0
BBX 3 7 0 0
BITMAP
A0
00
40
40
40
40
40
ENDCHAR
STARTCHAR char150
ENCODING 150
SWIDTH 555 0
DWIDTH 5 0
BBX 4 8 0 0
BITMAP
50
A0
00
E0
90
90
90
90
ENDCHAR
STARTCHAR char151
ENCODING 151
SWIDTH 555 0
DWIDTH 5 0
BBX 4 8 0 0
BITMAP
20
40
00
60
90
90
90
60
ENDCHAR
STARTCHAR char152
ENCODING 152
SWIDTH 555 0
DWIDTH 5 0
BBX 4 8 0 0
BITMAP
40
20
00
60
90
90
90
60
ENDCHAR
STARTCHAR char153
ENCODING 153
SWIDTH 555 0
DWIDTH 5 0
BBX 4 8 0 0
BITMAP
20
50
00
60
90
90
90
60
ENDCHAR
STARTCHAR char154
ENCODING 154
SWIDTH 555 0
DWIDTH 5 0
BBX 4 7 0 0
BITMAP
90
00
60
90
90
90
60
ENDCHAR
STARTCHAR char155
ENCODING 155
SWIDTH 555 0
DWIDTH 5 0
BBX 4 8 0 0
BITMAP
50
A0
00
60
90
90
90
60
ENDCHAR
STARTCHAR char156
ENCODING 156
SWIDTH 555 0
DWIDTH 5 0
BBX 4 8 0 0
BITMAP
20
40
00
90
90
90
90
70
ENDCHAR
STARTCHAR char157
ENCODING 157
SWIDTH 555 0
DWIDTH 5 0
BBX 4 8 0 0
BITMAP
40
20
00
90
90
90
90
70
ENDCHAR
STARTCHAR char158
ENCODING 158
SWIDTH 555 0
DWIDTH 5 0
BBX 4 8 0 0
BITMAP
20
50
00
90
90
90
90
70
ENDCHAR
STARTCHAR char159
ENCODING 159
SWIDTH 555 0
DWIDTH 5 0
BBX 4 7 0 0
BITMAP
90
00
90
90
90
90
70
ENDCHAR
STARTCHAR char160
ENCODING 160
SWIDTH 666 0
DWIDTH 6 0
BBX 5 7 0 0
BITMAP
20
F8
20
20
20
20
20
ENDCHAR
STARTCHAR char161
ENCODING 161
SWIDTH 444 0
DWIDTH 4 0
BBX 3 3 0 4
BITMAP
40
A0
40
ENDCHAR
STARTCHAR char162
ENCODING 162
SWIDTH 555 0
DWIDTH 5 0
BBX 4 7 0 0
BITMAP
20
70
A0
A0
A0
70
20
ENDCHAR
STARTCHAR char163
ENCODING 163
SWIDTH 666 0
DWIDTH 6 0
BBX 5 7 0 0
BITMAP
38
40
40
F0
40
40
F8
ENDCHAR
STARTCHAR char165
ENCODING 165
SWIDTH 222 0
DWIDTH 2 0
BBX 1 1 0 3
BITMAP
80
ENDCHAR
STARTCHAR char166
ENCODING 166
SWIDTH 666 0
DWIDTH 6 0
BBX 5 8 0 -1
BITMAP
78
E8
E8
68
28
28
28
28
ENDCHAR
STARTCHAR char167
ENCODING 167
SWIDTH 666 0
DWIDTH 6 0
BBX 5 7 0 0
BITMAP
70
88
88
B0
88
88
B0
ENDCHAR
STARTCHAR char168
ENCODING 168
SWIDTH 1000 0
DWIDTH 9 0
BBX 8 8 0 -1
BITMAP
3C
42
B9
A5
B9
A5
42
3C
ENDCHAR
STARTCHAR char169
ENCODING 169
SWIDTH 1000 0
DWIDTH 9 0
BBX 8 8 0 -1
BITMAP
3C
42
99
A1
A1
99
42
3C
ENDCHAR
STARTCHAR char170
ENCODING 170
SWIDTH 1000 0
DWIDTH 9 0
BBX 8 4 0 3
BITMAP
F1
5B
55
51
ENDCHAR
STARTCHAR char171
ENCODING 171
SWIDTH 333 0
DWIDTH 3 0
BBX 2 2 0 5
BITMAP
40
80
ENDCHAR
STARTCHAR char172
ENCODING 172
SWIDTH 444 0
DWIDTH 4 0
BBX 3 1 0 6
BITMAP
A0
ENDCHAR
STARTCHAR char174
ENCODING 174
SWIDTH 777 0
DWIDTH 7 0
BBX 6 7 0 0
BITMAP
7C
90
90
9C
F0
90
9C
ENDCHAR
STARTCHAR char175
ENCODING 175
SWIDTH 666 0
DWIDTH 6 0
BBX 5 7 0 0
BITMAP
70
88
98
A8
C8
88
70
ENDCHAR
STARTCHAR char177
ENCODING 177
SWIDTH 666 0
DWIDTH 6 0
BBX 5 7 0 0
BITMAP
20
20
F8
20
20
00
F8
ENDCHAR
STARTCHAR char180
ENCODING 180
SWIDTH 666 0
DWIDTH 6 0
BBX 5 8 0 -1
BITMAP
88
88
70
20
F8
20
F8
20
ENDCHAR
STARTCHAR char181
ENCODING 181
SWIDTH 555 0
DWIDTH 5 0
BBX 4 6 0 -1
BITMAP
90
90
90
90
E0
80
ENDCHAR
STARTCHAR char190
ENCODING 190
SWIDTH 666 0
DWIDTH 6 0
BBX 5 5 0 0
BITMAP
50
28
78
A0
78
ENDCHAR
STARTCHAR char191
ENCODING 191
SWIDTH 555 0
DWIDTH 5 0
BBX 4 5 0 0
BITMAP
60
B0
D0
90
60
ENDCHAR
STARTCHAR char192
ENCODING 192
SWIDTH 555 0
DWIDTH 5 0
BBX 4 7 0 0
BITMAP
20
00
20
40
80
80
70
ENDCHAR
STARTCHAR char193
ENCODING 193
SWIDTH 222 0
DWIDTH 2 0
BBX 1 7 0 0
BITMAP
80
00
80
80
80
80
80
ENDCHAR
STARTCHAR char194
ENCODING 194
SWIDTH 555 0
DWIDTH 5 0
BBX 4 3 0 1
BITMAP
F0
10
10
ENDCHAR
STARTCHAR char196
ENCODING 196
SWIDTH 666 0
DWIDTH 6 0
BBX 5 8 0 -1
BITMAP
18
20
20
70
20
20
20
C0
ENDCHAR
STARTCHAR char199
ENCODING 199
SWIDTH 777 0
DWIDTH 7 0
BBX 6 5 0 1
BITMAP
24
48
90
48
24
ENDCHAR
STARTCHAR char200
ENCODING 200
SWIDTH 777 0
DWIDTH 7 0
BBX 6 5 0 1
BITMAP
90
48
24
48
90
ENDCHAR
STARTCHAR char201
ENCODING 201
SWIDTH 666 0
DWIDTH 6 0
BBX 5 1 0 0
BITMAP
A8
ENDCHAR
STARTCHAR char202
ENCODING 202
SWIDTH 222 0
DWIDTH 2 0
BBX 0 0 0 0
BITMAP
ENDCHAR
STARTCHAR char203
ENCODING 203
SWIDTH 666 0
DWIDTH 6 0
BBX 5 10 0 0
BITMAP
40
20
00
70
88
88
88
F8
88
88
ENDCHAR
STARTCHAR char204
ENCODING 204
SWIDTH 666 0
DWIDTH 6 0
BBX 6 10 0 0
BITMAP
64
98
00
70
88
88
88
F8
88
88
ENDCHAR
STARTCHAR char205
ENCODING 205
SWIDTH 777 0
DWIDTH 7 0
BBX 6 10 0 0
BITMAP
64
98
00
70
88
88
88
88
88
70
ENDCHAR
STARTCHAR char206
ENCODING 206
SWIDTH 777 0
DWIDTH 7 0
BBX 6 7 0 0
BITMAP
7C
90
90
9C
90
90
7C
ENDCHAR
STARTCHAR char207
ENCODING 207
SWIDTH 666 0
DWIDTH 6 0
BBX 5 5 0 0
BITMAP
50
A8
B8
A0
58
ENDCHAR
STARTCHAR char209
ENCODING 209
SWIDTH 666 0
DWIDTH 6 0
BBX 5 1 0 3
BITMAP
F8
ENDCHAR
STARTCHAR char210
ENCODING 210
SWIDTH 444 0
DWIDTH 4 0
BBX 3 2 0 5
BITMAP
A0
A0
ENDCHAR
STARTCHAR char211
ENCODING 211
SWIDTH 444 0
DWIDTH 4 0
BBX 3 2 0 5
BITMAP
A0
A0
ENDCHAR
STARTCHAR char212
ENCODING 212
SWIDTH 222 0
DWIDTH 2 0
BBX 1 2 0 5
BITMAP
80
80
ENDCHAR
STARTCHAR char213
ENCODING 213
SWIDTH 222 0
DWIDTH 2 0
BBX 1 2 0 5
BITMAP
80
80
ENDCHAR
STARTCHAR char214
ENCODING 214
SWIDTH 666 0
DWIDTH 6 0
BBX 5 5 0 1
BITMAP
20
00
F8
00
20
ENDCHAR
STARTCHAR char216
ENCODING 216
SWIDTH 555 0
DWIDTH 5 0
BBX 4 8 0 -1
BITMAP
90
00
90
90
90
70
10
E0
ENDCHAR
STARTCHAR char217
ENCODING 217
SWIDTH 666 0
DWIDTH 6 0
BBX 5 9 0 0
BITMAP
88
00
88
88
88
70
20
20
20
ENDCHAR
STARTCHAR char219
ENCODING 219
SWIDTH 666 0
DWIDTH 6 0
BBX 5 7 0 0
BITMAP
38
40
F0
40
F0
40
38
ENDCHAR
STARTCHAR char220
ENCODING 220
SWIDTH 444 0
DWIDTH 4 0
BBX 3 5 0 1
BITMAP
20
40
80
40
20
ENDCHAR
STARTCHAR char221
ENCODING 221
SWIDTH 444 0
DWIDTH 4 0
BBX 3 5 0 1
BITMAP
80
40
20
40
80
ENDCHAR
STARTCHAR char225
ENCODING 225
SWIDTH 222 0
DWIDTH 2 0
BBX 1 1 0 3
BITMAP
80
ENDCHAR
STARTCHAR char226
ENCODING 226
SWIDTH 222 0
DWIDTH 2 0
BBX 1 2 0 -1
BITMAP
80
80
ENDCHAR
STARTCHAR char227
ENCODING 227
SWIDTH 444 0
DWIDTH 4 0
BBX 3 2 0 -1
BITMAP
A0
A0
ENDCHAR
STARTCHAR char229
ENCODING 229
SWIDTH 666 0
DWIDTH 6 0
BBX 5 10 0 0
BITMAP
20
50
00
70
88
88
88
F8
88
88
ENDCHAR
STARTCHAR char230
ENCODING 230
SWIDTH 555 0
DWIDTH 5 0
BBX 4 10 0 0
BITMAP
20
50
00
F0
80
80
F0
80
80
F0
ENDCHAR
STARTCHAR char231
ENCODING 231
SWIDTH 666 0
DWIDTH 6 0
BBX 5 10 0 0
BITMAP
10
20
00
70
88
88
88
F8
88
88
ENDCHAR
STARTCHAR char232
ENCODING 232
SWIDTH 555 0
DWIDTH 5 0
BBX 4 9 0 0
BITMAP
90
00
F0
80
80
F0
80
80
F0
ENDCHAR
STARTCHAR char233
ENCODING 233
SWIDTH 555 0
DWIDTH 5 0
BBX 4 10 0 0
BITMAP
40
20
00
F0
80
80
F0
80
80
F0
ENDCHAR
STARTCHAR char234
ENCODING 234
SWIDTH 333 0
DWIDTH 3 0
BBX 2 10 0 0
BITMAP
80
40
00
40
40
40
40
40
40
40
ENDCHAR
STARTCHAR char235
ENCODING 235
SWIDTH 333 0
DWIDTH 3 0
BBX 3 10 0 0
BITMAP
40
A0
00
40
40
40
40
40
40
40
ENDCHAR
STARTCHAR char236
ENCODING 236
SWIDTH 333 0
DWIDTH 3 0
BBX 3 9 0 0
BITMAP
A0
00
40
40
40
40
40
40
40
ENDCHAR
STARTCHAR char237
ENCODING 237
SWIDTH 333 0
DWIDTH 3 0
BBX 2 10 1 0
BITMAP
40
80
00
80
80
80
80
80
80
80
ENDCHAR
STARTCHAR char238
ENCODING 238
SWIDTH 666 0
DWIDTH 6 0
BBX 5 10 0 0
BITMAP
10
20
00
70
88
88
88
88
88
70
ENDCHAR
STARTCHAR char239
ENCODING 239
SWIDTH 666 0
DWIDTH 6 0
BBX 5 10 0 0
BITMAP
20
50
00
70
88
88
88
88
88
70
ENDCHAR
STARTCHAR char241
ENCODING 241
SWIDTH 666 0
DWIDTH 6 0
BBX 5 10 0 0
BITMAP
40
20
00
70
88
88
88
88
88
70
ENDCHAR
STARTCHAR char242
ENCODING 242
SWIDTH 666 0
DWIDTH 6 0
BBX 5 10 0 0
BITMAP
10
20
00
88
88
88
88
88
88
70
ENDCHAR
STARTCHAR char243
ENCODING 243
SWIDTH 666 0
DWIDTH 6 0
BBX 5 10 0 0
BITMAP
20
50
00
88
88
88
88
88
88
70
ENDCHAR
STARTCHAR char244
ENCODING 244
SWIDTH 666 0
DWIDTH 6 0
BBX 5 10 0 0
BITMAP
40
20
00
88
88
88
88
88
88
70
ENDCHAR
STARTCHAR char245
ENCODING 245
SWIDTH 222 0
DWIDTH 2 0
BBX 1 5 0 0
BITMAP
80
80
80
80
80
ENDCHAR
STARTCHAR char252
ENCODING 252
SWIDTH 333 0
DWIDTH 3 0
BBX 2 2 0 -2
BITMAP
40
80
ENDCHAR
ENDFONT
